<svg xmlns="http://www.w3.org/2000/svg" viewBox="0 0 1440 37.64" width="1440" height="37.64"><defs><style>.a,.b{fill-rule:evenodd;}.a{opacity:0.3;}.b{fill:#010303;}</style></defs><title>dt_ui_content_divider</title><path class="a" d="M1357.26,22.4l-127.45-9.86-128,2.17-313.7.14S665.4,27,663.9,27s-89.54-9.57-89.54-9.57l-304.15.58-40.89,4.64-117.6-.87L9.95,16.75,0,16.41v7.51l91.32,9,274-11.67L546.68,35.94l165.63-8.7,258.27,10.4,201-19.52,76-.21,97.45,9.76L1440,23.89V17Z"/><path class="a" d="M1357.26,9.86,1229.81,0l-128,2.17-313.7.14S662.68,17.15,661.18,17.15,574.36,4.93,574.36,4.93l-304.15.58-40.89,4.64-117.6-.87L9.95,4.2,0,3.87v7.51l91.32,9L363.5,16.58h184l164.8-1.89,258.27,10.4,201-19.52,76,5.79,97.45,3.76L1440,16.35V4.43Z"/><polygon class="b" points="1341.49 13.81 1176.53 3.07 1056.88 10.5 788.97 7.6 661.18 17.15 568.33 10.91 412.86 14.43 269.29 14.16 223.91 17.7 123.76 17.58 75.8 15.25 0 14 0 23.92 118.28 23.38 256.1 24.81 280.73 20.54 577.49 19.97 662.52 27.94 768.09 19.97 949.89 17.69 1150.91 19.05 1225.35 19.37 1259.44 20.54 1340.97 30.09 1440 23.89 1440 13.99 1341.49 13.81"/></svg>